<?xml version="1.0" standalone="no"?>
<!DOCTYPE svg PUBLIC "-//W3C//DTD SVG 1.1//EN" "http://www.w3.org/Graphics/SVG/1.1/DTD/svg11.dtd">
<svg xmlns="http://www.w3.org/2000/svg" xmlns:xlink="http://www.w3.org/1999/xlink" version="1.1" width="3162.18115234375" height="438.1982421875" viewBox="0 0 3162.181219884828 438.1982460009658">
			
			<g transform="scale(8.109060994241393) translate(10, 10)">
				<defs id="SvgjsDefs14574"/><g id="SvgjsG14575" featureKey="xG21Y3-0" transform="matrix(0.9271099744245522,0,0,0.9271099744245522,0,4)" fill="#000"><path xmlns="http://www.w3.org/2000/svg" fill-rule="evenodd" d="M197.675976,78.2896208 L197.675976,78.2896208 C194.778181,81.3383284 193,85.4613323 193,90 C193,94.538731 194.778202,98.6617118 197.675986,101.710391 C195.471891,103.157964 192.834422,104 190,104 C182.267533,104 176,97.7329931 176,90 C176,82.2675326 182.267007,76 190,76 C192.834325,76 195.471824,76.8420216 197.675976,78.2896208 Z M222.324014,78.2896091 C224.528109,76.8420356 227.165578,76 230,76 C237.732467,76 244,82.2670069 244,90 C244,97.7324674 237.732993,104 230,104 C227.165675,104 224.528176,103.157978 222.324024,101.710379 C225.221819,98.6616716 227,94.5386677 227,90 C227,85.461269 225.221798,81.3382882 222.324014,78.2896091 L222.324014,78.2896091 Z M217.675976,78.2896208 L217.675976,78.2896208 C214.778181,81.3383284 213,85.4613323 213,90 C213,94.538731 214.778202,98.6617118 217.675986,101.710391 C215.471891,103.157964 212.834422,104 210,104 C207.165675,104 204.528176,103.157978 202.324024,101.710379 C205.221819,98.6616716 207,94.5386677 207,90 C207,85.461269 205.221798,81.3382882 202.324014,78.2896091 C204.528109,76.8420356 207.165578,76 210,76 C212.834325,76 215.471824,76.8420216 217.675976,78.2896208 Z M220.000001,80.2014711 L220.000001,80.2014711 C222.474418,82.7264403 224,86.1848021 224,90 C224,93.8150391 222.474466,97.2734793 219.999999,99.7985289 C217.525582,97.2735597 216,93.8151979 216,90 C216,86.1849609 217.525534,82.7265207 220.000001,80.2014711 Z M200.000001,80.2014711 C202.474418,82.7264403 204,86.1848021 204,90 C204,93.8150391 202.474466,97.2734793 199.999999,99.7985289 C197.525582,97.2735597 196,93.8151979 196,90 C196,86.1849609 197.525534,82.7265207 200.000001,80.2014711 L200.000001,80.2014711 Z" transform="translate(-176 -76)"/></g><g id="SvgjsG14576" featureKey="n48U4P-0" transform="matrix(1.8640797184445683,0,0,1.8640797184445683,82.4780932866663,-10.028749098558771)" fill="#000"><path d="M9.74 5.720000000000001 l-0.000019531 9.8 c0 3.2134 -1.5733 4.82 -4.72 4.82 c-1.4267 0 -2.5734 -0.39 -3.44 -1.17 s-1.3 -1.85 -1.3 -3.21 l0 -1.28 l2.84 0 l0 0.7 c0 0.84 0.15334 1.4367 0.46 1.79 s0.76 0.53 1.36 0.53 c0.57334 0 0.99334 -0.16 1.26 -0.48 s0.4 -0.9 0.4 -1.74 l0 -9.76 l3.14 0 z M15.040000000000001 9.66 l0 5.86 c0 0.8 0.12666 1.42 0.38 1.86 s0.73334 0.66 1.44 0.66 c0.78666 0 1.35 -0.23334 1.69 -0.7 s0.51 -1.2133 0.51 -2.24 l0 -5.44 l2.84 0 l0 10.34 l-2.7 0 l0 -1.44 l-0.06 0 c-0.70666 1.1467 -1.7667 1.72 -3.18 1.72 c-1.3467 0 -2.31 -0.34334 -2.89 -1.03 s-0.87 -1.7433 -0.87 -3.17 l0 -6.42 l2.84 0 z M28.3 9.38 c1.3867 0 2.47 0.28002 3.25 0.84002 s1.2167 1.38 1.31 2.46 l-2.7 0 c-0.04 -0.49334 -0.22 -0.85 -0.54 -1.07 s-0.78666 -0.33 -1.4 -0.33 c-0.53334 0 -0.93 0.08 -1.19 0.24 s-0.39 0.4 -0.39 0.72 c0 0.24 0.08666 0.44 0.26 0.6 s0.43668 0.3 0.79002 0.42 s0.74334 0.22 1.17 0.3 c1.2933 0.25334 2.2066 0.51334 2.74 0.78 s0.92334 0.58666 1.17 0.96 s0.37 0.83334 0.37 1.38 c0 1.16 -0.42334 2.05 -1.27 2.67 s-1.9967 0.93 -3.45 0.93 c-1.52 0 -2.7034 -0.32666 -3.55 -0.98 s-1.2833 -1.54 -1.31 -2.66 l2.7 0 c0 0.53334 0.20666 0.95668 0.62 1.27 s0.93334 0.47 1.56 0.47 c0.53334 0 0.97668 -0.11666 1.33 -0.35 s0.53 -0.55668 0.53 -0.97002 c0 -0.26666 -0.11 -0.48666 -0.33 -0.66 s-0.53 -0.32668 -0.93 -0.46002 s-1.02 -0.28668 -1.86 -0.46002 c-0.66666 -0.13334 -1.26 -0.31334 -1.78 -0.54 s-0.91666 -0.52332 -1.19 -0.88998 s-0.41 -0.81666 -0.41 -1.35 c0 -0.68 0.16334 -1.2733 0.49 -1.78 s0.82666 -0.89 1.5 -1.15 s1.51 -0.39 2.51 -0.39 z M38.4 6.5600000000000005 l0.000019531 3.1 l2.08 0 l0 1.9 l-2.08 0 l0 5.12 c0 0.48 0.08 0.8 0.24 0.96 s0.48 0.24 0.96 0.24 c0.34666 0 0.64 -0.02666 0.88 -0.08 l0 2.22 c-0.4 0.06666 -0.96 0.1 -1.68 0.1 c-1.0933 0 -1.9067 -0.18666 -2.44 -0.56 s-0.8 -1.02 -0.8 -1.94 l0 -6.06 l-1.72 0 l0 -1.9 l1.72 0 l0 -3.1 l2.84 0 z M54.1 5.380000000000001 c1.6267 0 3.0066 0.47336 4.14 1.42 s1.76 2.1534 1.88 3.62 l-3 0 c-0.18666 -0.8 -0.54666 -1.4 -1.08 -1.8 s-1.18 -0.6 -1.94 -0.6 c-1.2267 0 -2.18 0.44334 -2.86 1.33 s-1.02 2.0766 -1.02 3.57 c0 1.4667 0.34666 2.63 1.04 3.49 s1.64 1.29 2.84 1.29 c2.0534 0 3.1866 -1.0267 3.4 -3.08 l-3.16 0 l0 -2.34 l6 0 l0 7.72 l-2 0 l-0.32 -1.62 c-1 1.3067 -2.3066 1.96 -3.92 1.96 c-2.1066 0 -3.8034 -0.69334 -5.09 -2.08 s-1.93 -3.1666 -1.93 -5.34 c0 -2.2134 0.64 -4.0234 1.92 -5.43 s2.98 -2.11 5.1 -2.11 z M67.6 9.38 c1.6533 0 2.96 0.50334 3.92 1.51 s1.44 2.3234 1.44 3.95 c0 1.64 -0.49 2.9566 -1.47 3.95 s-2.2766 1.49 -3.89 1.49 c-1.64 0 -2.94 -0.50334 -3.9 -1.51 s-1.44 -2.3166 -1.44 -3.93 c0 -1.6667 0.49 -2.9934 1.47 -3.98 s2.27 -1.48 3.87 -1.48 z M65.1 14.84 c0 1.0533 0.21334 1.8666 0.64 2.44 s1.0467 0.86 1.86 0.86 c0.84 0 1.47 -0.29334 1.89 -0.88 s0.63 -1.3933 0.63 -2.42 c0 -1.0667 -0.21666 -1.8867 -0.65 -2.46 s-1.0633 -0.86 -1.89 -0.86 c-0.8 0 -1.4133 0.28666 -1.84 0.86 s-0.64 1.3933 -0.64 2.46 z M79.82 9.38 c1.6533 0 2.96 0.50334 3.92 1.51 s1.44 2.3234 1.44 3.95 c0 1.64 -0.49 2.9566 -1.47 3.95 s-2.2766 1.49 -3.89 1.49 c-1.64 0 -2.94 -0.50334 -3.9 -1.51 s-1.44 -2.3166 -1.44 -3.93 c0 -1.6667 0.49 -2.9934 1.47 -3.98 s2.27 -1.48 3.87 -1.48 z M77.32 14.84 c0 1.0533 0.21334 1.8666 0.64 2.44 s1.0467 0.86 1.86 0.86 c0.84 0 1.47 -0.29334 1.89 -0.88 s0.63 -1.3933 0.63 -2.42 c0 -1.0667 -0.21666 -1.8867 -0.65 -2.46 s-1.0633 -0.86 -1.89 -0.86 c-0.8 0 -1.4133 0.28666 -1.84 0.86 s-0.64 1.3933 -0.64 2.46 z M97.1 5.720000000000001 l0 14.28 l-2.7 0 l0 -1.32 l-0.04 0 c-0.61334 1.0667 -1.66 1.6 -3.14 1.6 c-1.4267 0 -2.5566 -0.52 -3.39 -1.56 s-1.25 -2.3666 -1.25 -3.98 c0 -1.5733 0.42334 -2.86 1.27 -3.86 s1.95 -1.5 3.31 -1.5 c0.62666 0 1.2167 0.13 1.77 0.39 s0.98334 0.64334 1.29 1.15 l0.04 0 l0 -5.2 l2.84 0 z M89.42 14.82 c0 0.94666 0.22332 1.7367 0.66998 2.37 s1.0567 0.95 1.83 0.95 c0.81334 0 1.4233 -0.29666 1.83 -0.89 s0.61 -1.41 0.61 -2.45 s-0.21334 -1.8467 -0.64 -2.42 s-1.0333 -0.86 -1.82 -0.86 c-0.81334 0 -1.43 0.3 -1.85 0.9 s-0.63 1.4 -0.63 2.4 z M111.5 5.380000000000001 c1.6267 0 3.0066 0.47336 4.14 1.42 s1.76 2.1534 1.88 3.62 l-3 0 c-0.18666 -0.8 -0.54666 -1.4 -1.08 -1.8 s-1.18 -0.6 -1.94 -0.6 c-1.2267 0 -2.18 0.44334 -2.86 1.33 s-1.02 2.0766 -1.02 3.57 c0 1.4667 0.34666 2.63 1.04 3.49 s1.64 1.29 2.84 1.29 c2.0534 0 3.1866 -1.0267 3.4 -3.08 l-3.16 0 l0 -2.34 l6 0 l0 7.72 l-2 0 l-0.32 -1.62 c-1 1.3067 -2.3066 1.96 -3.92 1.96 c-2.1066 0 -3.8034 -0.69334 -5.09 -2.08 s-1.93 -3.1666 -1.93 -5.34 c0 -2.2134 0.64 -4.0234 1.92 -5.43 s2.98 -2.11 5.1 -2.11 z M126.02000000000001 9.38 c0.24 0 0.44668 0.03334 0.62002 0.1 l0 2.64 c-0.30666 -0.06666 -0.64666 -0.1 -1.02 -0.1 c-1.8667 0 -2.8 1.1067 -2.8 3.32 l0 4.66 l-2.84 0 l0 -10.34 l2.7 0 l0 1.92 l0.04 0 c0.28 -0.66666 0.72334 -1.2 1.33 -1.6 s1.2633 -0.6 1.97 -0.6 z M130.68 5.720000000000001 l0 2.34 l-2.84 0 l0 -2.34 l2.84 0 z M130.68 9.66 l0 10.34 l-2.84 0 l0 -10.34 l2.84 0 z M138.74 9.38 c1.4267 0 2.5666 0.5 3.42 1.5 s1.28 2.3534 1.28 4.06 c0 1.56 -0.41 2.84 -1.23 3.84 s-1.9233 1.5 -3.31 1.5 c-1.36 0 -2.3934 -0.52 -3.1 -1.56 l-0.04 0 l0 4.92 l-2.84 0 l0 -13.98 l2.7 0 l0 1.32 l0.04 0 c0.68 -1.0667 1.7067 -1.6 3.08 -1.6 z M135.66 14.86 c0 1.0133 0.21336 1.8133 0.64002 2.4 s1.04 0.88 1.84 0.88 c0.82666 0 1.4433 -0.29334 1.85 -0.88 s0.61 -1.3867 0.61 -2.4 c0 -1.04 -0.22 -1.8567 -0.66 -2.45 s-1.0533 -0.89 -1.84 -0.89 s-1.39 0.29334 -1.81 0.88 s-0.63 1.4067 -0.63 2.46 z M149.38 9.38 c1.3867 0 2.47 0.28002 3.25 0.84002 s1.2167 1.38 1.31 2.46 l-2.7 0 c-0.04 -0.49334 -0.22 -0.85 -0.54 -1.07 s-0.78666 -0.33 -1.4 -0.33 c-0.53334 0 -0.93 0.08 -1.19 0.24 s-0.39 0.4 -0.39 0.72 c0 0.24 0.08666 0.44 0.26 0.6 s0.43668 0.3 0.79002 0.42 s0.74334 0.22 1.17 0.3 c1.2933 0.25334 2.2066 0.51334 2.74 0.78 s0.92334 0.58666 1.17 0.96 s0.37 0.83334 0.37 1.38 c0 1.16 -0.42334 2.05 -1.27 2.67 s-1.9967 0.93 -3.45 0.93 c-1.52 0 -2.7034 -0.32666 -3.55 -0.98 s-1.2833 -1.54 -1.31 -2.66 l2.7 0 c0 0.53334 0.20666 0.95668 0.62 1.27 s0.93334 0.47 1.56 0.47 c0.53334 0 0.97668 -0.11666 1.33 -0.35 s0.53 -0.55668 0.53 -0.97002 c0 -0.26666 -0.11 -0.48666 -0.33 -0.66 s-0.53 -0.32668 -0.93 -0.46002 s-1.02 -0.28668 -1.86 -0.46002 c-0.66666 -0.13334 -1.26 -0.31334 -1.78 -0.54 s-0.91666 -0.52332 -1.19 -0.88998 s-0.41 -0.81666 -0.41 -1.35 c0 -0.68 0.16334 -1.2733 0.49 -1.78 s0.82666 -0.89 1.5 -1.15 s1.51 -0.39 2.51 -0.39 z"/></g>
			</g>
		</svg>